<svg version="1.1" xmlns="http://www.w3.org/2000/svg">
<path fill="#00703C" d="M254.492,30.922c-0.234-1.43-0.363-2.9-0.363-4.4v-0.146C254.129,11.877,265.57,0,281.305,0
	c15.738,0,27.031,11.73,27.031,26.23v0.145c0,5.32-1.598,10.271-4.516,14.496l0.012,0.008c-6.445-0.531-12.711-1.309-18.766-2.316
	L292,30.641l3.082,2.715c0.988-2.15,1.523-4.641,1.523-7.338v-0.143c0-8.547-6.266-15.527-15.301-15.527h-0.145
	c-9.035,0-15.301,6.98-15.301,15.527v0.143c0,3.377,0.992,6.529,2.746,9.111C263.707,33.887,258.992,32.48,254.492,30.922z
	 M346.773,40.816c3.516-0.287,6.996-0.641,10.438-1.057c1.027-2.881,1.566-6.248,1.566-10.105V0.875h-11.219V30.09
	c0,5.605-1.996,9.318-5.5,11.072C343.625,41.059,345.199,40.945,346.773,40.816z M377.875,36.443V0.875h-11.223v37.578
	C370.453,37.857,374.191,37.186,377.875,36.443z M397.758,31.57V19.453l7.473,9.809c3.605-1.184,7.121-2.441,10.539-3.766
	L397.031,0.875h-10.348V34.5C390.453,33.6,394.145,32.621,397.758,31.57z M332.199,41.621c-4.211-1.531-6.645-5.539-6.645-11.895
	V0.875h-11.219V30.02c0,4.537,0.77,8.396,2.215,11.582C321.684,41.762,326.906,41.771,332.199,41.621z M386.684,39.553v12.322
	h11.074V37.586C394.117,38.291,390.426,38.947,386.684,39.553z M366.652,42.248v9.627h11.223V40.871
	C374.176,41.379,370.434,41.84,366.652,42.248z M354.938,43.336c-12.586,0.98-24.891,1.336-36.785,1.121
	c3.727,5.457,10.031,8.219,18.258,8.219c8.766,0,15.469-3.107,19.16-9.391C355.359,43.303,355.148,43.32,354.938,43.336z
	 M278.992,41.537c-0.09-0.014-0.18-0.023-0.266-0.037c-7.727-1.053-15.148-2.371-22.215-3.93c4.105,8.969,13.199,15.18,24.648,15.18
	c5.684,0,10.926-1.684,15.223-4.449l8.051,7.197l7.184-8.137l-3.895-3.244C297.777,43.65,288.172,42.779,278.992,41.537z
	 M420.93,32.277l-0.004-0.002c-3.684,0.984-7.441,1.916-11.27,2.797l12.801,16.803h9.547V29.102
	c-3.613,1.109-7.305,2.168-11.074,3.174V32.277z M420.93,0.875v22.541c3.828-1.609,7.523-3.307,11.074-5.082V0.875H420.93z
	 M92.637,16.307c3.938-0.24,7.84-0.428,11.711-0.566c2.672-3.293,6.582-5.393,10.98-5.393c5.902,0,9.402,1.893,13.336,5.172
	l7.066-8.523C130.41,2.477,124.875,0,115.695,0c-11.699,0-21.008,6.816-24.84,16.42C91.449,16.381,92.043,16.344,92.637,16.307z
	 M156.742,17.02c2.66-4.033,7.125-6.672,12.617-6.672c6.91,0,12.281,4.262,14.426,10.174c4.336,0.756,8.527,1.588,12.555,2.492
	C194.805,10.035,184.059,0,169.504,0c-11.793,0-21.172,6.672-25.133,16.119C148.57,16.357,152.699,16.658,156.742,17.02z
	 M68.277,18.449V0.875H57.059v19.016C60.742,19.367,64.484,18.887,68.277,18.449z M236.719,32.277l-0.004-0.004l0,0L212.82,0.875
	h-10.344V24.48c3.863,0.98,7.559,2.035,11.074,3.156v-8.184l24.695,32.422h9.547V35.477c-3.816-0.992-7.512-2.063-11.074-3.203
	V32.277z M202.477,51.875h11.074V36.887c-3.516-1.709-7.211-3.313-11.074-4.811V51.875z M236.719,0.875v22.539
	c3.492,1.787,7.191,3.461,11.074,5.014V0.875H236.719z M184.805,26.316c0,0.02,0,0.039,0,0.059v0.146
	c0,8.742-6.266,15.883-15.301,15.883c-9.031,0-15.445-7.287-15.445-16.029V26.23c0-2.035,0.344-3.979,0.98-5.77
	c-3.844-0.5-7.758-0.916-11.73-1.25c-0.637,2.281-0.98,4.684-0.98,7.164v0.146c0,14.498,11.293,26.229,27.031,26.229
	c14.465,0,25.293-10.035,26.949-22.918C192.605,28.566,188.77,27.391,184.805,26.316z M115.402,32.203h11.293v7.285
	c-2.84,2.043-6.484,3.063-10.563,3.063c-9.035,0-15.445-6.85-15.445-16.176V26.23c0-2.691,0.621-5.242,1.727-7.479
	c-2.109,0.123-4.23,0.266-6.359,0.434c-2.105,0.168-4.203,0.357-6.285,0.566c-0.531,2.119-0.813,4.338-0.813,6.623v0.146
	c0,15.08,10.926,26.229,26.813,26.229c9.324,0,16.535-3.643,21.781-8.088V22.514h-22.148V32.203z M68.277,22.695
	c-3.801,0.664-7.539,1.395-11.219,2.191v26.988h31.863V41.32H68.277V22.695z M3.824,42.891L0,51.875h11.438L15.75,41.32h22.273
	l4.309,10.555h11.73L43.934,28.074C29.262,32.031,15.758,37.051,3.824,42.891z M21.738,26.557l5.148-12.568l4.273,10.445
	c3.387-0.715,6.844-1.393,10.359-2.031L32.203,0.512H21.859L9.402,29.781C13.387,28.652,17.5,27.574,21.738,26.557z M244.5,90.635
	c5.566,0,8.965-2.039,12.07-5.268l-3.359-3.4c-2.551,2.381-4.887,3.867-8.543,3.867c-5.695,0-9.816-4.76-9.816-10.582v-0.086
	c0-5.822,4.121-10.496,9.816-10.496c3.402,0,5.949,1.486,8.332,3.697l3.355-3.867c-2.848-2.721-6.16-4.633-11.645-4.633
	c-9.008,0-15.34,6.928-15.34,15.385v0.084C229.371,83.879,235.828,90.635,244.5,90.635z M274.828,90.635
	c9.137,0,15.598-7.012,15.598-15.383v-0.086c0-8.371-6.375-15.299-15.512-15.299s-15.598,7.012-15.598,15.385v0.084
	C259.316,83.707,265.691,90.635,274.828,90.635z M274.914,85.834c-5.91,0-10.117-4.803-10.117-10.582v-0.086
	c0-5.779,4.125-10.496,10.031-10.496s10.113,4.803,10.113,10.582v0.084C284.941,81.115,280.82,85.834,274.914,85.834z
	 M295.816,90.125h20.867v-4.758h-15.641v-24.99h-5.227V90.125z M322.094,90.125h20.867v-4.758H327.32v-24.99h-5.227V90.125z
	 M348.367,90.125h22.27v-4.674h-17.039v-7.99h14.914v-4.676h-14.914v-7.734h16.828v-4.674h-22.059V90.125z M390.555,90.635
	c5.27,0,9.477-2.123,12.41-4.631V73.51h-12.664v4.547h7.605v5.566c-1.824,1.361-4.375,2.252-7.18,2.252
	c-6.078,0-10.117-4.504-10.117-10.623v-0.086c0-5.693,4.164-10.496,9.648-10.496c3.781,0,6.035,1.232,8.332,3.188l3.313-3.953
	c-3.059-2.592-6.246-4.037-11.434-4.037c-8.965,0-15.34,7.055-15.34,15.385v0.084C375.129,84.008,381.246,90.635,390.555,90.635z
	 M409.734,90.125h22.27v-4.674h-17.043v-7.99h14.918v-4.676h-14.918v-7.734h16.828v-4.674h-22.055V90.125z"/>
</svg>
