<svg viewBox="0 0 143 72" fill="none" xmlns="http://www.w3.org/2000/svg">
<path d="M65.5417 50.0609C60.3778 61.2299 48.8583 69.0083 35.75 69.0083C17.6764 69.0083 2.97917 54.2493 2.97917 35.9003C2.97917 17.7507 17.6764 2.99169 35.75 2.99169C48.6597 2.99169 59.9806 10.5706 65.3431 21.5402H68.7194C63.1583 8.77562 50.4472 0 35.75 0C16.0875 0 0 16.1551 0 35.9003C0 55.6454 16.0875 71.8006 35.75 71.8006C50.6458 71.8006 63.3569 62.8255 68.7194 49.8615H65.5417V50.0609Z" fill="white"/>
<path d="M20.6555 25.928C17.0805 25.928 14.4986 28.9197 14.1014 33.7064C16.0875 33.7064 18.0736 33.7064 20.0597 33.7064C21.8472 33.7064 23.6347 33.7064 25.6208 33.5069C25.6208 33.5069 25.8194 33.5069 26.2167 33.5069C25.8194 30.1164 25.025 25.928 20.6555 25.928ZM28.6 44.277C26.2167 45.8726 23.8333 46.8698 20.8542 46.8698C14.1014 46.8698 10.1292 42.6815 10.1292 35.7009C10.1292 28.9197 14.1014 24.7313 20.6555 24.7313C26.6139 24.7313 29.7917 28.3214 29.7917 34.3047C29.7917 34.7036 29.7917 34.9031 29.7917 35.7009C28.2028 35.5014 26.4153 35.5014 22.2444 35.5014C19.6625 35.5014 17.4778 35.5014 14.6972 35.5014H14.1014C14.1014 35.9003 14.1014 36.0997 14.1014 36.0997C14.1014 41.6842 17.0805 45.0748 21.8472 45.0748C24.4292 45.0748 27.0111 43.8781 28.7986 41.8837H28.9972L28.6 44.277Z" fill="white"/>
<path d="M36.5445 24.9306C37.5375 24.9306 37.9347 24.9306 38.7292 24.7312C38.5306 25.9278 38.5306 27.324 38.5306 28.7201C40.1195 25.7284 42.5028 24.5317 45.6806 24.5317C48.8583 24.5317 51.2417 26.1273 52.2347 28.9195C53.8236 25.9278 56.207 24.5317 59.7819 24.5317C63.9528 24.5317 66.3361 26.9251 66.3361 31.1134C66.3361 34.3046 66.1375 37.6952 66.1375 40.8863C66.1375 43.4791 66.1375 44.8752 66.1375 46.2713C65.3431 46.0719 64.9458 46.0719 64.1514 46.0719C63.3569 46.0719 62.9597 46.0719 62.1653 46.2713C62.3639 44.4763 62.5625 40.0885 62.5625 36.6979V33.1079C62.5625 28.5206 61.1722 26.5262 57.7958 26.5262C54.8167 26.5262 52.8306 28.5206 52.4333 31.9112C52.2347 33.7062 52.2347 36.0996 52.2347 39.4902C52.2347 42.2824 52.2347 44.0774 52.4333 46.0719C51.6389 45.8724 51.4403 45.8724 50.4472 45.8724C49.6528 45.8724 49.2556 45.8724 48.4611 46.0719C48.8583 42.8808 48.8583 39.2907 48.8583 36.0996C48.8583 29.3184 48.6597 28.3212 46.6736 27.1245C45.8792 26.7256 45.0847 26.5262 44.0917 26.5262C38.9278 26.5262 38.5306 31.1134 38.5306 35.1024V38.6924C38.5306 41.0857 38.5306 43.2796 38.7292 45.4735C38.7292 45.4735 38.7292 45.673 38.7292 45.8724C37.9347 45.673 37.7361 45.673 36.9417 45.673C35.9486 45.673 35.75 45.673 34.9556 45.8724C35.3528 42.2824 35.3528 38.8918 35.3528 35.3018C35.3528 31.9112 35.3528 28.5206 35.1542 24.9306V24.3323C35.75 24.9306 35.9486 24.9306 36.5445 24.9306Z" fill="white"/>
<path d="M75.2736 35.9001C75.2736 41.2852 78.0542 45.2741 82.0264 45.2741C86.3958 45.2741 89.1764 41.2852 89.1764 35.1024C89.1764 29.5179 86.5944 25.7284 82.6222 25.7284C78.0542 25.7284 75.2736 29.3184 75.075 35.3018C75.4722 35.5013 75.2736 35.7007 75.2736 35.9001ZM82.8208 24.3323C89.1764 24.3323 93.3472 28.7201 93.3472 35.5013C93.3472 42.083 88.5806 46.6702 82.0264 46.6702C75.6708 46.6702 71.5 42.2824 71.5 35.5013C71.5 28.7201 76.0681 24.3323 82.8208 24.3323Z" fill="white"/>
<path d="M100.894 24.9306C101.49 24.9306 101.887 24.9306 102.483 24.7312C102.483 25.9278 102.285 27.1245 102.285 28.1217C102.285 28.3212 102.285 28.5206 102.285 28.7201C104.271 25.7284 106.257 24.3323 109.633 24.3323C114.4 24.3323 116.982 27.1245 116.982 31.9112C116.982 34.504 116.783 37.0968 116.783 39.6896C116.783 41.8835 116.783 43.878 116.783 46.0719C115.989 45.8724 115.592 45.8724 114.797 45.8724C114.201 45.8724 113.804 45.8724 112.811 46.0719C113.01 43.6785 113.208 38.4929 113.208 34.504C113.208 30.914 112.811 26.7256 108.044 26.7256C102.682 26.7256 102.086 30.914 102.086 35.3018C102.086 37.2963 102.086 39.4902 102.086 41.4846C102.086 43.0802 102.285 44.6758 102.285 46.2713C101.49 46.0719 101.093 46.0719 100.497 46.0719C99.7027 46.0719 99.3054 46.0719 98.511 46.2713C98.7096 44.2769 98.7096 43.4791 98.9082 40.6868C98.9082 38.2935 99.1068 35.1024 99.1068 32.1107C99.1068 29.7173 99.1068 27.324 98.9082 24.7312C99.9013 24.7312 100.298 24.9306 100.894 24.9306Z" fill="white"/>
<path d="M132.672 44.8754C136.644 44.8754 139.226 40.8865 139.226 34.7037C139.226 29.5181 136.843 25.9281 133.069 25.9281C128.7 25.9281 126.317 29.1192 126.317 35.302C126.515 39.6898 127.508 44.8754 132.672 44.8754ZM139.425 41.8837C137.439 44.8754 135.85 46.6704 131.878 46.6704C125.919 46.6704 122.344 42.4821 122.344 35.7009C122.344 28.9197 126.317 24.3325 132.076 24.3325C135.254 24.3325 137.439 25.7286 139.226 28.7203C139.226 27.3242 139.226 25.9281 139.226 24.5319C139.226 20.543 139.028 16.3546 139.028 12.3657C139.822 12.5652 140.219 12.5652 141.014 12.5652C141.61 12.5652 142.007 12.5652 142.801 12.3657C142.603 13.9613 142.603 14.3602 142.603 17.9502L142.404 23.3353V29.1192V35.302C142.404 38.6926 142.404 42.0832 142.404 45.2743V46.0721C141.61 45.8727 141.411 45.8727 140.617 45.8727C140.219 45.8727 139.822 45.8727 139.028 46.0721L139.425 41.8837Z" fill="white"/>
</svg>
